<svg width="24.000000" height="24.000000" viewBox="0 0 24 24" fill="none" xmlns="http://www.w3.org/2000/svg" xmlns:xlink="http://www.w3.org/1999/xlink">
	<desc>
			Created with Pixso.
	</desc>
	<defs>
		<clipPath id="clip20_25">
			<rect id="Frame" width="24.000000" height="24.000000" fill="white" fill-opacity="0"/>
		</clipPath>
	</defs>
	<rect id="Frame" width="24.000000" height="24.000000" fill="#FFFFFF" fill-opacity="0"/>
	<g clip-path="url(#clip20_25)">
		<path id="Vector" d="M12 1.875C9.99744 1.875 8.03992 2.46882 6.37488 3.58137C4.70984 4.69392 3.41211 6.27523 2.64575 8.12533C1.87939 9.97543 1.67883 12.0112 2.06958 13.9753C2.46021 15.9393 3.42456 17.7435 4.84058 19.1595C6.25659 20.5755 8.06067 21.5398 10.0247 21.9305C11.9888 22.3211 14.0245 22.1206 15.8746 21.3543C17.7247 20.5879 19.306 19.2902 20.4186 17.6251C21.5311 15.9601 22.125 14.0025 22.125 12C22.1221 9.3156 21.0543 6.742 19.1561 4.84383C17.2581 2.94567 14.6844 1.87798 12 1.875ZM7.45972 18.4284C7.98193 17.7143 8.66528 17.1335 9.45422 16.7331C10.243 16.3327 11.1154 16.124 12 16.124C12.8846 16.124 13.757 16.3327 14.5458 16.7331C15.3347 17.1335 16.0181 17.7143 16.5403 18.4284C15.2134 19.3695 13.6268 19.875 12 19.875C10.3733 19.875 8.78662 19.3695 7.45972 18.4284ZM9.375 11.25C9.375 10.7308 9.52893 10.2233 9.81738 9.79163C10.1058 9.35995 10.5157 9.0235 10.9955 8.82481C11.4751 8.62614 12.0029 8.57415 12.5121 8.67544C13.0214 8.77673 13.489 9.02673 13.8562 9.39384C14.2233 9.76096 14.4733 10.2287 14.5746 10.7379C14.6759 11.2471 14.6239 11.7749 14.4252 12.2545C14.2266 12.7342 13.89 13.1442 13.4584 13.4326C13.0267 13.721 12.5192 13.875 12 13.875C11.3038 13.875 10.6361 13.5984 10.1438 13.1062C9.65161 12.6139 9.375 11.9462 9.375 11.25ZM18.1875 16.8694C17.4584 15.9419 16.5289 15.1914 15.4688 14.6738C16.1444 13.9896 16.6027 13.1208 16.7858 12.1769C16.9689 11.2329 16.8688 10.2558 16.498 9.36861C16.1273 8.4814 15.5024 7.72364 14.702 7.19068C13.9017 6.65771 12.9615 6.37334 12 6.37334C11.0385 6.37334 10.0984 6.65771 9.29797 7.19068C8.49756 7.72364 7.8728 8.4814 7.50195 9.36861C7.13123 10.2558 7.03113 11.2329 7.21423 12.1769C7.39734 13.1208 7.85559 13.9896 8.53125 14.6738C7.47107 15.1914 6.54163 15.9419 5.8125 16.8694C4.89661 15.7083 4.32617 14.3129 4.16638 12.8427C4.00671 11.3725 4.26404 9.88711 4.9093 8.55644C5.55444 7.22578 6.56116 6.10367 7.81433 5.31854C9.06763 4.53342 10.5165 4.11703 11.9954 4.11703C13.4741 4.11703 14.9231 4.53342 16.1763 5.31854C17.4294 6.10367 18.4363 7.22578 19.0814 8.55644C19.7266 9.88711 19.984 11.3725 19.8242 12.8427C19.6646 14.3129 19.094 15.7083 18.1781 16.8694L18.1875 16.8694Z" fill="#000000" fill-opacity="1.000000" fill-rule="nonzero"/>
	</g>
</svg>
