<svg width="28.000000" height="28.000000" viewBox="0 0 28 28" fill="none" xmlns="http://www.w3.org/2000/svg" xmlns:xlink="http://www.w3.org/1999/xlink">
	<desc>
			Created with Pixso.
	</desc>
	<defs/>
	<circle id="BG" cx="14.000000" cy="14.000000" r="14.000000" fill="#FFFFFF" fill-opacity="1.000000"/>
	<circle id="BG" cx="14.000000" cy="14.000000" r="13.500000" stroke="#000000" stroke-opacity="0.200000" stroke-width="1.000000"/>
	<path id="Vector" d="M14.6068 7.22656C11.0159 7.22656 8.12695 10.1157 8.12695 13.7065C8.12695 16.5684 9.98993 18.9985 12.5549 19.8623C12.8789 19.9165 12.9869 19.7275 12.9869 19.5386C12.9869 19.3765 12.9869 18.9712 12.9869 18.4312C11.1779 18.8364 10.7999 17.5674 10.7999 17.5674C10.5029 16.8115 10.0709 16.6226 10.0709 16.6226C9.47693 16.2173 10.1249 16.2173 10.1249 16.2173C10.7729 16.2715 11.1239 16.8926 11.1239 16.8926C11.6909 17.8916 12.6359 17.5942 13.0139 17.4326C13.0679 17.0005 13.2299 16.7305 13.4189 16.5684C11.9879 16.4062 10.4759 15.8394 10.4759 13.3555C10.4759 12.6533 10.7189 12.0596 11.1509 11.6274C11.0969 11.4653 10.8539 10.8174 11.2049 9.89941C11.2049 9.89941 11.7449 9.7373 12.9869 10.5747C13.4999 10.4395 14.0669 10.3584 14.6068 10.3584C15.1468 10.3584 15.7138 10.4395 16.2268 10.5747C17.4688 9.7373 18.0088 9.89941 18.0088 9.89941C18.3598 10.7905 18.1438 11.4385 18.0628 11.6274C18.4678 12.0864 18.7378 12.6533 18.7378 13.3555C18.7378 15.8394 17.2258 16.3794 15.7678 16.5415C16.0108 16.7305 16.1998 17.1353 16.1998 17.7295C16.1998 18.5933 16.1998 19.2954 16.1998 19.5112C16.1998 19.6733 16.3078 19.8892 16.6588 19.8354C19.2238 18.9985 21.0867 16.5684 21.0867 13.7065C21.0867 10.1157 18.1978 7.22656 14.6068 7.22656Z" fill="#000000" fill-opacity="1.000000" fill-rule="evenodd"/>
</svg>
