<svg width="28.000000" height="28.000000" viewBox="0 0 28 28" fill="none" xmlns="http://www.w3.org/2000/svg" xmlns:xlink="http://www.w3.org/1999/xlink">
	<desc>
			Created with Pixso.
	</desc>
	<defs/>
	<circle id="BG" cx="14.000000" cy="14.000000" r="14.000000" fill="#FFFFFF" fill-opacity="1.000000"/>
	<circle id="BG" cx="14.000000" cy="14.000000" r="13.500000" stroke="#000000" stroke-opacity="0.200000" stroke-width="1.000000"/>
	<path id="Vector" d="M14.0008 8.44727C15.8095 8.44727 16.0237 8.4541 16.7382 8.48633C17.1678 8.4917 17.5933 8.5708 17.9962 8.71973C18.2885 8.83252 18.5538 9.00488 18.7753 9.22656C18.9967 9.44824 19.1694 9.71338 19.282 10.0054C19.4311 10.4087 19.51 10.834 19.5153 11.2637C19.5475 11.978 19.5546 12.1924 19.5546 14.001C19.5546 15.8096 19.5479 16.0239 19.5153 16.7383C19.51 17.168 19.4311 17.5938 19.282 17.9966C19.1694 18.2886 18.9967 18.5542 18.7753 18.7754C18.5538 18.9971 18.2885 19.1694 17.9962 19.2822C17.5933 19.4316 17.1678 19.5103 16.7382 19.5156C16.024 19.5479 15.8098 19.5552 14.0008 19.5552C12.1917 19.5552 11.9775 19.5483 11.2633 19.5156C10.8337 19.5103 10.4082 19.4316 10.0053 19.2822C9.71307 19.1694 9.44769 18.9971 9.22624 18.7754C9.00479 18.5542 8.83215 18.2886 8.71947 17.9966C8.57039 17.5938 8.4915 17.168 8.48624 16.7383C8.45398 16.0239 8.44688 15.8096 8.44688 14.001C8.44688 12.1924 8.45366 11.978 8.48624 11.2637C8.4915 10.834 8.57039 10.4087 8.71947 10.0054C8.83215 9.71338 9.00479 9.44824 9.22624 9.22656C9.44769 9.00488 9.71307 8.83252 10.0053 8.71973C10.4082 8.5708 10.8337 8.4917 11.2633 8.48633C11.9779 8.4541 12.192 8.44727 14.0008 8.44727ZM14.0008 7.22656C12.162 7.22656 11.9304 7.23438 11.2079 7.26709C10.6456 7.27832 10.0893 7.38477 9.5627 7.58203C9.11092 7.75244 8.70172 8.01904 8.36366 8.36377C8.01869 8.70166 7.75172 9.11133 7.58141 9.56348C7.3842 10.0898 7.27774 10.6465 7.26656 11.2085C7.2343 11.9307 7.22656 12.1621 7.22656 14.001C7.22656 15.8394 7.2343 16.0713 7.26721 16.7935C7.2784 17.356 7.38484 17.9121 7.58205 18.439C7.75218 18.8906 8.01892 19.3003 8.36366 19.6387C8.7019 19.9834 9.11133 20.25 9.56334 20.4199C10.09 20.6172 10.6463 20.7236 11.2085 20.7349C11.9311 20.7671 12.1617 20.7754 14.0014 20.7754C15.8411 20.7754 16.0717 20.7681 16.7943 20.7349C17.3566 20.7236 17.9128 20.6172 18.4395 20.4199C18.8893 20.2456 19.2979 19.9795 19.6389 19.6382C19.9799 19.2969 20.246 18.8882 20.4201 18.438C20.6173 17.9116 20.7238 17.3555 20.735 16.793C20.7672 16.0713 20.7749 15.8394 20.7749 14.001C20.7749 12.1621 20.7672 11.9307 20.7343 11.208C20.7231 10.6455 20.6167 10.0894 20.4195 9.5625C20.2493 9.11084 19.9826 8.70117 19.6378 8.36279C19.2996 8.01807 18.8902 7.75146 18.4382 7.58154C17.9115 7.38428 17.3553 7.27783 16.793 7.2666C16.0711 7.23438 15.8395 7.22656 14.0008 7.22656Z" fill="#000000" fill-opacity="1.000000" fill-rule="nonzero"/>
	<path id="Vector" d="M14.0022 10.5234C13.3141 10.5234 12.6416 10.7275 12.0695 11.1099C11.4974 11.4922 11.0515 12.0352 10.7882 12.6709C10.5249 13.3066 10.4561 14.0059 10.5903 14.6807C10.7245 15.3555 11.0558 15.9756 11.5423 16.4619C12.0288 16.9482 12.6487 17.2798 13.3235 17.4141C13.9983 17.5483 14.6977 17.4795 15.3334 17.2158C15.969 16.9526 16.5123 16.5068 16.8946 15.9346C17.2768 15.3628 17.4809 14.6899 17.4809 14.002C17.4809 13.0796 17.1143 12.1948 16.462 11.5425C15.8096 10.8901 14.9248 10.5234 14.0022 10.5234ZM14.0022 16.2603C13.5555 16.2603 13.119 16.1279 12.7476 15.8799C12.3763 15.6313 12.0869 15.2788 11.916 14.8662C11.7451 14.4536 11.7003 13.9995 11.7875 13.5615C11.8746 13.1235 12.0897 12.7212 12.4055 12.4053C12.7213 12.0898 13.1236 11.8745 13.5616 11.7876C13.9996 11.7002 14.4537 11.7451 14.8663 11.916C15.2789 12.0869 15.6315 12.3765 15.8797 12.7476C16.1278 13.1191 16.2602 13.5557 16.2602 14.002C16.2602 14.6011 16.0223 15.1753 15.5988 15.5986C15.1754 16.0225 14.601 16.2603 14.0022 16.2603Z" fill="#000000" fill-opacity="1.000000" fill-rule="nonzero"/>
	<path id="Vector" d="M18.4305 10.3853C18.4305 10.834 18.0665 11.1982 17.6176 11.1982C17.1686 11.1982 16.8047 10.834 16.8047 10.3853C16.8047 9.93604 17.1686 9.57227 17.6176 9.57227C18.0665 9.57227 18.4305 9.93604 18.4305 10.3853Z" fill="#000000" fill-opacity="1.000000" fill-rule="evenodd"/>
</svg>
