<svg width="18.751831" height="15.755859" viewBox="0 0 18.7518 15.7559" fill="none" xmlns="http://www.w3.org/2000/svg" xmlns:xlink="http://www.w3.org/1999/xlink">
	<desc>
			Created with Pixso.
	</desc>
	<defs/>
	<path id="Vector" d="M7.08093 0.332031L0.330933 7.08203C0.225952 7.18652 0.142822 7.31079 0.0860596 7.44751C0.0291748 7.58423 0 7.73096 0 7.87891C0 8.02686 0.0291748 8.17358 0.0860596 8.3103C0.142822 8.44702 0.225952 8.57129 0.330933 8.67578L7.08093 15.4258C7.29224 15.6372 7.57886 15.7559 7.87781 15.7559C8.17664 15.7559 8.46326 15.6372 8.67468 15.4258C8.88599 15.2144 9.00476 14.9277 9.00476 14.6289C9.00476 14.3301 8.88599 14.0435 8.67468 13.832L3.84558 9.00293L17.6268 9.00293C17.9252 9.00293 18.2113 8.88452 18.4224 8.67358C18.6333 8.4624 18.7518 8.17627 18.7518 7.87793C18.7518 7.57959 18.6333 7.29346 18.4224 7.08252C18.2113 6.87158 17.9252 6.75293 17.6268 6.75293L3.84558 6.75293L8.67554 1.92383C8.88696 1.71265 9.00562 1.42603 9.00562 1.12695C9.00562 0.828125 8.88696 0.541504 8.67554 0.330078C8.46423 0.118896 8.17761 0 7.87866 0C7.57983 0 7.29321 0.118896 7.08179 0.330078L7.08093 0.332031Z" fill="#000000" fill-opacity="1.000000" fill-rule="nonzero"/>
</svg>
