<svg width="20.250000" height="15.750000" viewBox="0 0 20.25 15.75" fill="none" xmlns="http://www.w3.org/2000/svg" xmlns:xlink="http://www.w3.org/1999/xlink">
	<desc>
			Created with Pixso.
	</desc>
	<defs/>
	<path id="Vector" d="M19.125 0L1.125 0C0.82666 0 0.540466 0.118408 0.329529 0.32959C0.11853 0.540527 0 0.82666 0 1.125L0 13.875C0 14.3723 0.197571 14.8491 0.549194 15.2009C0.900818 15.5525 1.37775 15.75 1.875 15.75L18.375 15.75C18.8723 15.75 19.3492 15.5525 19.7008 15.2009C20.0524 14.8491 20.25 14.3723 20.25 13.875L20.25 1.125C20.25 0.82666 20.1315 0.540527 19.9205 0.32959C19.7095 0.118408 19.4233 0 19.125 0ZM10.125 7.84863L4.01721 2.25L16.2328 2.25L10.125 7.84863ZM6.82404 7.875L2.25 12.0674L2.25 3.68262L6.82404 7.875ZM8.48907 9.40137L9.36469 10.2046C9.5722 10.395 9.84351 10.5005 10.125 10.5005C10.4065 10.5005 10.6778 10.395 10.8853 10.2046L11.7609 9.40137L16.2328 13.5L4.01721 13.5L8.48907 9.40137ZM13.426 7.875L18 3.68262L18 12.0674L13.426 7.875Z" fill="#000000" fill-opacity="0.400000" fill-rule="nonzero"/>
</svg>
