<svg width="24.000000" height="24.000000" viewBox="0 0 24 24" fill="none" xmlns="http://www.w3.org/2000/svg" xmlns:xlink="http://www.w3.org/1999/xlink">
	<desc>
			Created with Pixso.
	</desc>
	<defs>
		<clipPath id="clip24_821">
			<rect id="arrow-down-bold 1" width="24.000000" height="24.000000" transform="translate(0.000000 24.000000) rotate(-90.000000)" fill="white" fill-opacity="0"/>
		</clipPath>
	</defs>
	<rect id="arrow-down-bold 1" width="24.000000" height="24.000000" transform="translate(0.000000 24.000000) rotate(-90.000000)" fill="#FFFFFF" fill-opacity="0"/>
	<g clip-path="url(#clip24_821)">
		<path id="Vector" d="M14.2959 4.4541L21.0459 11.2041C21.1509 11.3086 21.234 11.4329 21.2908 11.5696C21.3477 11.7063 21.3768 11.853 21.3768 12.001C21.3768 12.1489 21.3477 12.2957 21.2908 12.4324C21.234 12.5691 21.1509 12.6934 21.0459 12.7979L14.2959 19.5479C14.0846 19.7593 13.798 19.8779 13.499 19.8779C13.2002 19.8779 12.9136 19.7593 12.7021 19.5479C12.4908 19.3364 12.3721 19.0498 12.3721 18.751C12.3721 18.4521 12.4908 18.1655 12.7021 17.9541L17.5312 13.125L3.75 13.125C3.45166 13.125 3.16553 13.0066 2.95447 12.7957C2.74353 12.5845 2.625 12.2983 2.625 12C2.625 11.7017 2.74353 11.4155 2.95447 11.2046C3.16553 10.9937 3.45166 10.875 3.75 10.875L17.5312 10.875L12.7013 6.0459C12.4899 5.83472 12.3712 5.5481 12.3712 5.24902C12.3712 4.9502 12.4899 4.66357 12.7013 4.45215C12.9126 4.24097 13.1992 4.12207 13.4982 4.12207C13.797 4.12207 14.0836 4.24097 14.295 4.45215L14.2959 4.4541Z" fill="#000000" fill-opacity="1.000000" fill-rule="nonzero"/>
	</g>
</svg>
