<svg width="28.000000" height="28.000000" viewBox="0 0 28 28" fill="none" xmlns="http://www.w3.org/2000/svg" xmlns:xlink="http://www.w3.org/1999/xlink">
	<desc>
			Created with Pixso.
	</desc>
	<defs/>
	<circle id="BG" cx="14.000000" cy="14.000000" r="14.000000" fill="#FFFFFF" fill-opacity="1.000000"/>
	<circle id="BG" cx="14.000000" cy="14.000000" r="13.500000" stroke="#000000" stroke-opacity="0.200000" stroke-width="1.000000"/>
	<path id="Vector" d="M20.2071 10.9829C19.7881 11.1694 19.3458 11.2856 18.8802 11.3555C19.3458 11.0762 19.7183 10.6338 19.8812 10.0986C19.4389 10.3545 18.9501 10.541 18.4146 10.6572C17.9956 10.2148 17.3904 9.93555 16.7386 9.93555C15.4815 9.93555 14.4572 10.96 14.4572 12.2168C14.4572 12.4033 14.4805 12.5659 14.5271 12.729C12.6414 12.6357 10.9421 11.728 9.80141 10.3311C9.61518 10.6807 9.49879 11.0527 9.49879 11.4722C9.49879 12.2637 9.89452 12.9619 10.5231 13.3809C10.1506 13.3574 9.80141 13.2646 9.4755 13.1016L9.4755 13.125C9.4755 14.2422 10.267 15.1733 11.3145 15.3828C11.1283 15.4292 10.9188 15.4526 10.7093 15.4526C10.5696 15.4526 10.4067 15.4292 10.267 15.4062C10.5696 16.314 11.4077 16.9893 12.4087 16.9893C11.6172 17.5942 10.6395 17.9668 9.56862 17.9668C9.38239 17.9668 9.19616 17.9668 9.0332 17.9434C10.0575 18.5952 11.2447 18.9678 12.5483 18.9678C16.7618 18.9678 19.0665 15.4761 19.0665 12.4497C19.0665 12.3564 19.0665 12.2402 19.0665 12.147C19.5088 11.8442 19.9045 11.4487 20.2071 10.9829Z" fill="#000000" fill-opacity="1.000000" fill-rule="nonzero"/>
</svg>
