<svg width="20.273682" height="20.274620" viewBox="0 0 20.2737 20.2746" fill="none" xmlns="http://www.w3.org/2000/svg" xmlns:xlink="http://www.w3.org/1999/xlink">
	<desc>
			Created with Pixso.
	</desc>
	<defs/>
	<path id="Vector" d="M19.9399 18.348L15.4877 13.8939C16.8226 12.1544 17.4458 9.97216 17.231 7.78999C17.0161 5.60781 15.9792 3.58907 14.3306 2.14328C12.6821 0.697487 10.5453 -0.0671005 8.35376 0.00462341C6.16223 0.0763474 4.08002 0.979012 2.52948 2.5295C0.979004 4.07999 0.076355 6.16221 0.00463867 8.35376C-0.0670776 10.5453 0.69751 12.6821 2.14325 14.3306C3.58905 15.9792 5.60779 17.0161 7.78998 17.2309C9.97217 17.4458 12.1544 16.8226 13.8939 15.4877L18.3499 19.9445C18.4545 20.0492 18.5787 20.1322 18.7155 20.1888C18.8522 20.2455 18.9987 20.2746 19.1467 20.2746C19.2947 20.2746 19.4413 20.2455 19.578 20.1888C19.7147 20.1322 19.8389 20.0492 19.9436 19.9445C20.0483 19.8399 20.1313 19.7157 20.1879 19.5789C20.2445 19.4422 20.2737 19.2957 20.2737 19.1477C20.2737 18.9997 20.2445 18.8531 20.1879 18.7164C20.1313 18.5797 20.0483 18.4554 19.9436 18.3508L19.9399 18.348ZM2.26892 8.64391C2.26892 7.38306 2.64282 6.15052 3.34332 5.10216C4.04376 4.05379 5.03943 3.23669 6.20428 2.75418C7.3692 2.27168 8.651 2.14543 9.88763 2.39141C11.1243 2.63739 12.2601 3.24455 13.1517 4.13611C14.0433 5.02767 14.6505 6.16358 14.8964 7.40022C15.1424 8.63684 15.0162 9.91864 14.5336 11.0835C14.0511 12.2484 13.234 13.244 12.1857 13.9445C11.1373 14.645 9.90479 15.0189 8.64392 15.0189C6.95367 15.0172 5.33319 14.345 4.138 13.1498C2.94287 11.9546 2.27063 10.3341 2.26892 8.64391Z" fill="#000000" fill-opacity="0.400000" fill-rule="nonzero"/>
</svg>
