<svg width="64.990967" height="48.407227" viewBox="0 0 64.991 48.4072" fill="none" xmlns="http://www.w3.org/2000/svg" xmlns:xlink="http://www.w3.org/1999/xlink">
	<desc>
			Created with Pixso.
	</desc>
	<defs>
		<filter id="filter_20_326_dd" x="0.000000" y="0.000000" width="64.990967" height="48.407227" filterUnits="userSpaceOnUse" color-interpolation-filters="sRGB">
			<feFlood flood-opacity="0" result="BackgroundImageFix"/>
			<feColorMatrix in="SourceAlpha" type="matrix" values="0 0 0 0 0 0 0 0 0 0 0 0 0 0 0 0 0 0 127 0" result="hardAlpha"/>
			<feOffset dx="0" dy="0.448214"/>
			<feGaussianBlur stdDeviation="1.49405"/>
			<feComposite in2="hardAlpha" operator="out" k2="-1" k3="1"/>
			<feColorMatrix type="matrix" values="0 0 0 0 0.71765 0 0 0 0 0.71765 0 0 0 0 0.71765 0 0 0 0.078 0"/>
			<feBlend mode="normal" in2="BackgroundImageFix" result="effect_dropShadow_1"/>
			<feColorMatrix in="SourceAlpha" type="matrix" values="0 0 0 0 0 0 0 0 0 0 0 0 0 0 0 0 0 0 127 0" result="hardAlpha"/>
			<feOffset dx="0" dy="4.48214"/>
			<feGaussianBlur stdDeviation="2.9881"/>
			<feComposite in2="hardAlpha" operator="out" k2="-1" k3="1"/>
			<feColorMatrix type="matrix" values="0 0 0 0 0.71765 0 0 0 0 0.71765 0 0 0 0 0.71765 0 0 0 0.078 0"/>
			<feBlend mode="normal" in2="effect_dropShadow_1" result="effect_dropShadow_2"/>
			<feBlend mode="normal" in="SourceGraphic" in2="effect_dropShadow_2" result="shape"/>
		</filter>
	</defs>
	<g filter="url(#filter_20_326_dd)">
		<rect id="Badge" rx="8.067858" width="46.838390" height="30.254465" transform="translate(9.076301 4.594490)" fill="#FFFFFF" fill-opacity="1.000000"/>
		<path id=" Pay" d="M24.2654 15.7881C24.5763 15.3994 24.7874 14.877 24.7317 14.3433C24.2765 14.3657 23.7209 14.6436 23.3993 15.0327C23.1105 15.3662 22.8549 15.9106 22.9215 16.4219C23.4326 16.4663 23.9431 16.1665 24.2654 15.7881ZM33.9243 17.708C33.9243 16.0889 32.801 14.9771 31.188 14.9771L28.0713 14.9771L28.0713 23.29L29.3616 23.29L29.3616 20.4502L31.1476 20.4502C32.778 20.4502 33.9243 19.3325 33.9243 17.708ZM30.8422 19.3672L29.3616 19.3672L29.3616 16.0659L30.848 16.0659C31.9657 16.0659 32.605 16.665 32.605 17.7134C32.605 18.7622 31.9657 19.3672 30.8422 19.3672ZM24.726 16.5215C24.2745 16.4946 23.8643 16.6562 23.5323 16.7871C23.3185 16.8716 23.1372 16.9429 22.9984 16.9429C22.8452 16.9429 22.6571 16.8687 22.4454 16.7847C22.1669 16.6748 21.8475 16.5483 21.514 16.5547C20.75 16.5659 20.0411 16.998 19.6533 17.6851C18.856 19.0596 19.4429 21.0981 20.2184 22.2178C20.595 22.7715 21.0488 23.3813 21.6469 23.3594C22.2119 23.3369 22.4333 22.9932 23.1202 22.9932C23.4716 22.9932 23.6953 23.0894 23.9103 23.1812C24.1152 23.269 24.3121 23.3535 24.6041 23.3481C25.2244 23.3369 25.6122 22.7939 25.9888 22.2397C26.4208 21.6084 26.5977 20.999 26.6088 20.9653C26.5977 20.9541 25.4127 20.4995 25.4017 19.1367C25.3912 18.064 26.2225 17.52 26.3591 17.4307C26.3678 17.4248 26.3737 17.4209 26.3763 17.4189C25.8446 16.6323 25.0139 16.5439 24.726 16.5215ZM34.2614 21.5679C34.2614 20.5078 35.0737 19.8564 36.514 19.7759L38.1731 19.6782L38.1731 19.2114C38.1731 18.5376 37.718 18.1343 36.9576 18.1343C36.2374 18.1343 35.788 18.48 35.6787 19.0215L34.5034 19.0215C34.5725 17.9268 35.5057 17.1201 37.0037 17.1201C38.4728 17.1201 39.4117 17.8979 39.4117 19.1133L39.4117 23.29L38.2191 23.29L38.2191 22.2935L38.1904 22.2935C37.8391 22.9678 37.0728 23.394 36.2778 23.394C35.0911 23.394 34.2614 22.6567 34.2614 21.5679ZM40.5376 24.5117L40.5376 25.52C40.6296 25.5371 40.9408 25.5488 41.0446 25.5488C42.3004 25.5488 42.8997 25.0762 43.418 23.6069L45.6879 17.2295L44.3745 17.2295L42.8418 22.1611L42.819 22.1611L41.2864 17.2295L39.9385 17.2295L42.1276 23.2959C42.1276 23.3018 42.0179 23.6592 42.0179 23.6704C41.828 24.2925 41.5168 24.5347 40.9408 24.5347C40.837 24.5347 40.6296 24.5347 40.5376 24.5117ZM38.1731 21.0205L38.1731 20.5425L36.681 20.6343C35.9377 20.6865 35.5173 21.0146 35.5173 21.5332C35.5173 22.063 35.9551 22.4087 36.6234 22.4087C37.4933 22.4087 38.1731 21.8096 38.1731 21.0205Z" fill="#000008" fill-opacity="1.000000" fill-rule="evenodd"/>
	</g>
	<rect id="Badge" rx="8.067858" width="46.838390" height="30.254465" transform="translate(9.076301 4.594490)" stroke="#D6DCE5" stroke-opacity="1.000000" stroke-width="0.224107"/>
</svg>
