<svg width="64.990967" height="48.407227" viewBox="0 0 64.991 48.4072" fill="none" xmlns="http://www.w3.org/2000/svg" xmlns:xlink="http://www.w3.org/1999/xlink">
	<desc>
			Created with Pixso.
	</desc>
	<defs>
		<filter id="filter_20_322_dd" x="0.000000" y="0.000000" width="64.990967" height="48.407227" filterUnits="userSpaceOnUse" color-interpolation-filters="sRGB">
			<feFlood flood-opacity="0" result="BackgroundImageFix"/>
			<feColorMatrix in="SourceAlpha" type="matrix" values="0 0 0 0 0 0 0 0 0 0 0 0 0 0 0 0 0 0 127 0" result="hardAlpha"/>
			<feOffset dx="0" dy="0.448214"/>
			<feGaussianBlur stdDeviation="1.49405"/>
			<feComposite in2="hardAlpha" operator="out" k2="-1" k3="1"/>
			<feColorMatrix type="matrix" values="0 0 0 0 0.71765 0 0 0 0 0.71765 0 0 0 0 0.71765 0 0 0 0.078 0"/>
			<feBlend mode="normal" in2="BackgroundImageFix" result="effect_dropShadow_1"/>
			<feColorMatrix in="SourceAlpha" type="matrix" values="0 0 0 0 0 0 0 0 0 0 0 0 0 0 0 0 0 0 127 0" result="hardAlpha"/>
			<feOffset dx="0" dy="4.48214"/>
			<feGaussianBlur stdDeviation="2.9881"/>
			<feComposite in2="hardAlpha" operator="out" k2="-1" k3="1"/>
			<feColorMatrix type="matrix" values="0 0 0 0 0.71765 0 0 0 0 0.71765 0 0 0 0 0.71765 0 0 0 0.078 0"/>
			<feBlend mode="normal" in2="effect_dropShadow_1" result="effect_dropShadow_2"/>
			<feBlend mode="normal" in="SourceGraphic" in2="effect_dropShadow_2" result="shape"/>
		</filter>
	</defs>
	<g filter="url(#filter_20_322_dd)">
		<rect id="Badge" rx="8.067858" width="46.838390" height="30.254465" transform="translate(9.076301 4.594490)" fill="#FFFFFF" fill-opacity="1.000000"/>
		<path id="Mastercard" d="M35.844 13.5552L28.9807 13.5552L28.9807 25.8887L35.844 25.8887L35.844 13.5552Z" fill="#FF5F00" fill-opacity="1.000000" fill-rule="nonzero"/>
		<path id="Mastercard" d="M29.4165 19.7217C29.4154 18.5337 29.6846 17.3613 30.2036 16.293C30.7227 15.2246 31.478 14.2881 32.4124 13.5547C31.2552 12.6455 29.8656 12.0796 28.4022 11.9229C26.9388 11.7656 25.4608 12.0234 24.1371 12.6665C22.8132 13.3101 21.6971 14.3125 20.9164 15.5601C20.1355 16.8076 19.7214 18.25 19.7214 19.7217C19.7214 21.1934 20.1355 22.6357 20.9164 23.8833C21.6971 25.1309 22.8132 26.1333 24.1371 26.7769C25.4608 27.4199 26.9388 27.6777 28.4022 27.5205C29.8656 27.3638 31.2552 26.7979 32.4124 25.8887C31.478 25.1553 30.7227 24.2188 30.2037 23.1504C29.6847 22.082 29.4155 20.9097 29.4165 19.7217Z" fill="#EB001B" fill-opacity="1.000000" fill-rule="nonzero"/>
		<path id="Mastercard" d="M45.103 19.7217C45.103 21.1934 44.689 22.6357 43.9082 23.8833C43.1274 25.1309 42.0114 26.1333 40.6876 26.7769C39.3639 27.4199 37.8859 27.6777 36.4225 27.5205C34.9591 27.3638 33.5695 26.7979 32.4124 25.8887C33.3459 25.1543 34.1007 24.2178 34.6196 23.1494C35.1385 22.0815 35.4082 20.9092 35.4082 19.7217C35.4082 18.5342 35.1385 17.3618 34.6196 16.2939C34.1007 15.2256 33.3459 14.2891 32.4124 13.5547C33.5695 12.6455 34.9591 12.0796 36.4225 11.9229C37.8859 11.7656 39.3639 12.0234 40.6876 12.6665C42.0114 13.3101 43.1274 14.3125 43.9082 15.5601C44.689 16.8076 45.103 18.25 45.103 19.7217Z" fill="#F79E1B" fill-opacity="1.000000" fill-rule="nonzero"/>
		<path id="Mastercard" d="M44.3546 24.582L44.3546 24.3296L44.4564 24.3296L44.4564 24.2783L44.1971 24.2783L44.1971 24.3296L44.299 24.3296L44.299 24.582L44.3546 24.582ZM44.858 24.582L44.858 24.2778L44.7786 24.2778L44.6871 24.4873L44.5957 24.2778L44.5161 24.2778L44.5161 24.582L44.5723 24.582L44.5723 24.3525L44.6581 24.5503L44.7162 24.5503L44.802 24.3521L44.802 24.582L44.858 24.582Z" fill="#F79E1B" fill-opacity="1.000000" fill-rule="nonzero"/>
	</g>
	<rect id="Badge" rx="8.067858" width="46.838390" height="30.254465" transform="translate(9.076301 4.594490)" stroke="#D6DCE5" stroke-opacity="1.000000" stroke-width="0.224107"/>
</svg>
