<svg width="64.990967" height="48.407227" viewBox="0 0 64.991 48.4072" fill="none" xmlns="http://www.w3.org/2000/svg" xmlns:xlink="http://www.w3.org/1999/xlink">
	<desc>
			Created with Pixso.
	</desc>
	<defs>
		<filter id="filter_20_328_dd" x="0.000000" y="0.000000" width="64.990967" height="48.407227" filterUnits="userSpaceOnUse" color-interpolation-filters="sRGB">
			<feFlood flood-opacity="0" result="BackgroundImageFix"/>
			<feColorMatrix in="SourceAlpha" type="matrix" values="0 0 0 0 0 0 0 0 0 0 0 0 0 0 0 0 0 0 127 0" result="hardAlpha"/>
			<feOffset dx="0" dy="0.448214"/>
			<feGaussianBlur stdDeviation="1.49405"/>
			<feComposite in2="hardAlpha" operator="out" k2="-1" k3="1"/>
			<feColorMatrix type="matrix" values="0 0 0 0 0.71765 0 0 0 0 0.71765 0 0 0 0 0.71765 0 0 0 0.078 0"/>
			<feBlend mode="normal" in2="BackgroundImageFix" result="effect_dropShadow_1"/>
			<feColorMatrix in="SourceAlpha" type="matrix" values="0 0 0 0 0 0 0 0 0 0 0 0 0 0 0 0 0 0 127 0" result="hardAlpha"/>
			<feOffset dx="0" dy="4.48214"/>
			<feGaussianBlur stdDeviation="2.9881"/>
			<feComposite in2="hardAlpha" operator="out" k2="-1" k3="1"/>
			<feColorMatrix type="matrix" values="0 0 0 0 0.71765 0 0 0 0 0.71765 0 0 0 0 0.71765 0 0 0 0.078 0"/>
			<feBlend mode="normal" in2="effect_dropShadow_1" result="effect_dropShadow_2"/>
			<feBlend mode="normal" in="SourceGraphic" in2="effect_dropShadow_2" result="shape"/>
		</filter>
	</defs>
	<g filter="url(#filter_20_328_dd)">
		<rect id="Badge" rx="8.067858" width="46.838390" height="30.254465" transform="translate(9.076301 4.594490)" fill="#FFFFFF" fill-opacity="1.000000"/>
		<path id="G Pay" d="M31.4822 23.3208L30.4337 23.3208L30.4337 15.1626L33.2131 15.1626C33.9176 15.1626 34.5183 15.3975 35.0098 15.8672C35.5121 16.3364 35.7633 16.9102 35.7633 17.5869C35.7633 18.2808 35.5121 18.854 35.0098 19.3184C34.5237 19.7822 33.9231 20.0117 33.2131 20.0117L31.4822 20.0117L31.4822 23.3208ZM31.4822 16.1675L31.4822 19.0122L33.235 19.0122C33.65 19.0122 33.9995 18.8706 34.2726 18.5918C34.551 18.3135 34.693 17.9746 34.693 17.5928C34.693 17.2158 34.551 16.8828 34.2726 16.604C33.9995 16.3149 33.6555 16.1729 33.235 16.1729L31.4822 16.1729L31.4822 16.1675Z" fill="#3C4043" fill-opacity="1.000000" fill-rule="nonzero"/>
		<path id="G Pay" d="M38.5044 17.5542C39.2799 17.5542 39.8915 17.7617 40.3392 18.1768C40.787 18.5918 41.0109 19.1597 41.0109 19.8809L41.0109 23.3208L40.0116 23.3208L40.0116 22.5454L39.9679 22.5454C39.5365 23.1841 38.9576 23.501 38.2368 23.501C37.6199 23.501 37.1066 23.3208 36.6915 22.9551C36.2765 22.5894 36.069 22.1357 36.069 21.5898C36.069 21.0107 36.2875 20.5522 36.7242 20.2139C37.1611 19.8696 37.7454 19.7002 38.4717 19.7002C39.0942 19.7002 39.6075 19.8149 40.0061 20.0444L40.0061 19.8042C40.0061 19.4385 39.8641 19.1323 39.5747 18.876C39.2853 18.6191 38.9468 18.4937 38.5591 18.4937C37.9747 18.4937 37.5106 18.7393 37.172 19.2363L36.2491 18.6572C36.7571 17.9204 37.5106 17.5542 38.5044 17.5542ZM37.1501 21.606C37.1501 21.8794 37.2649 22.1084 37.4996 22.2886C37.729 22.4688 38.0021 22.562 38.3134 22.562C38.7556 22.562 39.1488 22.3979 39.4928 22.0703C39.8368 21.7427 40.0116 21.3604 40.0116 20.918C39.684 20.6616 39.2307 20.5303 38.6465 20.5303C38.2205 20.5303 37.8656 20.6343 37.5815 20.8364C37.2922 21.0493 37.1501 21.3057 37.1501 21.606Z" fill="#3C4043" fill-opacity="1.000000" fill-rule="nonzero"/>
		<path id="G Pay" d="M46.7119 17.7349L43.217 25.7729L42.1359 25.7729L43.4354 22.9604L41.1311 17.7349L42.2723 17.7349L43.9324 21.7427L43.9542 21.7427L45.5706 17.7349L46.7119 17.7349Z" fill="#3C4043" fill-opacity="1.000000" fill-rule="nonzero"/>
		<path id="G Pay" d="M27.3118 19.3511C27.3118 19.0093 27.2812 18.6821 27.2244 18.3677L22.8297 18.3677L22.8297 20.1694L25.3607 20.1699C25.2581 20.7695 24.9276 21.2808 24.4215 21.6216L24.4215 22.7905L25.9281 22.7905C26.8077 21.9766 27.3118 20.7729 27.3118 19.3511Z" fill="#4285F4" fill-opacity="1.000000" fill-rule="nonzero"/>
		<path id="G Pay" d="M24.422 21.6216C24.0027 21.9043 23.4625 22.0698 22.8308 22.0698C21.6104 22.0698 20.575 21.2476 20.2042 20.1392L18.6501 20.1392L18.6501 21.3447C19.42 22.8726 21.0026 23.9209 22.8308 23.9209C24.0944 23.9209 25.1559 23.5054 25.9286 22.79L24.422 21.6216Z" fill="#34A853" fill-opacity="1.000000" fill-rule="nonzero"/>
		<path id="G Pay" d="M20.0579 19.2446C20.0579 18.9331 20.1097 18.6323 20.2041 18.3496L20.2041 17.1436L18.65 17.1436C18.3317 17.7754 18.1526 18.4888 18.1526 19.2446C18.1526 20 18.3323 20.7134 18.65 21.3452L20.2041 20.1396C20.1097 19.8564 20.0579 19.5557 20.0579 19.2446Z" fill="#FABB05" fill-opacity="1.000000" fill-rule="nonzero"/>
		<path id="G Pay" d="M22.8308 16.4185C23.5205 16.4185 24.1381 16.6562 24.6257 17.1201L25.9608 15.7861C25.1499 15.0308 24.0928 14.5674 22.8308 14.5674C21.0031 14.5674 19.42 15.6157 18.65 17.1436L20.2041 18.3496C20.575 17.2407 21.6104 16.4185 22.8308 16.4185Z" fill="#E94235" fill-opacity="1.000000" fill-rule="nonzero"/>
	</g>
	<rect id="Badge" rx="8.067858" width="46.838390" height="30.254465" transform="translate(9.076301 4.594490)" stroke="#D6DCE5" stroke-opacity="1.000000" stroke-width="0.224107"/>
</svg>
