<svg width="64.990967" height="48.407227" viewBox="0 0 64.991 48.4072" fill="none" xmlns="http://www.w3.org/2000/svg" xmlns:xlink="http://www.w3.org/1999/xlink">
	<desc>
			Created with Pixso.
	</desc>
	<defs>
		<filter id="filter_20_324_dd" x="0.000000" y="0.000000" width="64.990967" height="48.407227" filterUnits="userSpaceOnUse" color-interpolation-filters="sRGB">
			<feFlood flood-opacity="0" result="BackgroundImageFix"/>
			<feColorMatrix in="SourceAlpha" type="matrix" values="0 0 0 0 0 0 0 0 0 0 0 0 0 0 0 0 0 0 127 0" result="hardAlpha"/>
			<feOffset dx="0" dy="0.448214"/>
			<feGaussianBlur stdDeviation="1.49405"/>
			<feComposite in2="hardAlpha" operator="out" k2="-1" k3="1"/>
			<feColorMatrix type="matrix" values="0 0 0 0 0.71765 0 0 0 0 0.71765 0 0 0 0 0.71765 0 0 0 0.078 0"/>
			<feBlend mode="normal" in2="BackgroundImageFix" result="effect_dropShadow_1"/>
			<feColorMatrix in="SourceAlpha" type="matrix" values="0 0 0 0 0 0 0 0 0 0 0 0 0 0 0 0 0 0 127 0" result="hardAlpha"/>
			<feOffset dx="0" dy="4.48214"/>
			<feGaussianBlur stdDeviation="2.9881"/>
			<feComposite in2="hardAlpha" operator="out" k2="-1" k3="1"/>
			<feColorMatrix type="matrix" values="0 0 0 0 0.71765 0 0 0 0 0.71765 0 0 0 0 0.71765 0 0 0 0.078 0"/>
			<feBlend mode="normal" in2="effect_dropShadow_1" result="effect_dropShadow_2"/>
			<feBlend mode="normal" in="SourceGraphic" in2="effect_dropShadow_2" result="shape"/>
		</filter>
	</defs>
	<g filter="url(#filter_20_324_dd)">
		<rect id="Badge" rx="8.067858" width="46.838390" height="30.254465" transform="translate(9.076301 4.594490)" fill="#FFFFFF" fill-opacity="1.000000"/>
		<path id="Paypal" d="M19.3855 15.3525L16.698 15.3525C16.5142 15.3525 16.3577 15.4863 16.329 15.6675L15.2421 22.5586C15.2205 22.6943 15.3258 22.8169 15.4637 22.8169L16.7467 22.8169C16.9307 22.8169 17.087 22.6831 17.1157 22.5015L17.4089 20.6431C17.4373 20.4609 17.594 20.3276 17.7775 20.3276L18.6283 20.3276C20.3987 20.3276 21.4203 19.4707 21.6873 17.7734C21.8075 17.0308 21.6924 16.4473 21.3445 16.0386C20.9625 15.5898 20.285 15.3525 19.3855 15.3525ZM19.6956 17.8691C19.5487 18.8335 18.8118 18.8335 18.0994 18.8335L17.6938 18.8335L17.9783 17.0327C17.9952 16.9238 18.0895 16.8438 18.1996 16.8438L18.3855 16.8438C18.8707 16.8438 19.3286 16.8438 19.5652 17.1201C19.7062 17.2856 19.7494 17.5308 19.6956 17.8691ZM27.4191 17.8384L26.1321 17.8384C26.0225 17.8384 25.9277 17.9185 25.9108 18.0273L25.8539 18.3872L25.7639 18.2568C25.4852 17.8525 24.864 17.7173 24.2439 17.7173C22.8217 17.7173 21.6071 18.7944 21.3705 20.3052C21.2476 21.0586 21.4222 21.7793 21.8499 22.2822C22.2421 22.7441 22.8033 22.9365 23.4708 22.9365C24.6167 22.9365 25.2523 22.1997 25.2523 22.1997L25.1948 22.5576C25.1732 22.6943 25.2786 22.8169 25.4156 22.8169L26.575 22.8169C26.7594 22.8169 26.9148 22.6831 26.944 22.5015L27.6395 18.0972C27.6615 17.9614 27.5566 17.8384 27.4191 17.8384ZM25.6251 20.3428C25.5009 21.0781 24.9174 21.5718 24.1732 21.5718C23.7994 21.5718 23.5007 21.4517 23.3091 21.2246C23.1188 20.999 23.0464 20.6782 23.1069 20.3208C23.223 19.5918 23.8164 19.082 24.5493 19.082C24.9147 19.082 25.2118 19.2036 25.4075 19.4326C25.6035 19.6641 25.6813 19.9868 25.6251 20.3428ZM32.98 17.8384L34.2733 17.8384C34.4545 17.8384 34.5602 18.0415 34.4573 18.1899L30.1559 24.3979C30.0862 24.4985 29.9714 24.5586 29.8489 24.5586L28.5571 24.5586C28.3752 24.5586 28.269 24.3535 28.3744 24.2046L29.7137 22.3145L28.2893 18.1343C28.24 17.9893 28.3473 17.8384 28.5018 17.8384L29.7727 17.8384C29.9377 17.8384 30.0835 17.9468 30.1311 18.1045L30.8871 20.6289L32.6709 18.002C32.7407 17.8994 32.8567 17.8384 32.98 17.8384Z" fill="#253B80" fill-opacity="1.000000" fill-rule="evenodd"/>
		<path id="Paypal" d="M47.0026 22.5576L48.1056 15.541C48.1224 15.4321 48.2168 15.3521 48.3265 15.3516L49.5682 15.3516C49.7053 15.3516 49.8105 15.4746 49.7889 15.6104L48.7013 22.501C48.673 22.6826 48.5165 22.8164 48.3323 22.8164L47.2234 22.8164C47.0862 22.8164 46.981 22.6938 47.0026 22.5576ZM38.5557 15.3521L35.8677 15.3521C35.6842 15.3521 35.5278 15.4854 35.499 15.667L34.4121 22.5576C34.3905 22.6938 34.4957 22.8164 34.6331 22.8164L36.0122 22.8164C36.1405 22.8164 36.2501 22.7227 36.2701 22.5957L36.5785 20.6426C36.6069 20.4604 36.7637 20.3267 36.9471 20.3267L37.7975 20.3267C39.5682 20.3267 40.5897 19.4702 40.8568 17.7729C40.9774 17.0303 40.8616 16.4468 40.5138 16.0381C40.1321 15.5894 39.4551 15.3521 38.5557 15.3521ZM38.8657 17.8687C38.7191 18.833 37.9823 18.833 37.2694 18.833L36.8643 18.833L37.1492 17.0322C37.1661 16.9233 37.2595 16.8433 37.37 16.8433L37.5558 16.8433C38.0408 16.8433 38.4991 16.8433 38.7355 17.1196C38.8766 17.2847 38.9196 17.5298 38.8657 17.8687ZM46.5885 17.8379L45.3024 17.8379C45.1919 17.8379 45.098 17.918 45.0814 18.0269L45.0245 18.3867L44.9342 18.2563C44.6555 17.8521 44.0347 17.7168 43.4146 17.7168C41.9923 17.7168 40.7781 18.7939 40.5415 20.3047C40.4189 21.0581 40.593 21.7788 41.0205 22.2812C41.4135 22.7437 41.974 22.936 42.6416 22.936C43.7874 22.936 44.4229 22.1992 44.4229 22.1992L44.3655 22.5566C44.3439 22.6938 44.4492 22.8164 44.5872 22.8164L45.746 22.8164C45.9294 22.8164 46.0858 22.6826 46.1146 22.5005L46.8105 18.0962C46.8318 17.9609 46.7266 17.8379 46.5885 17.8379ZM44.7947 20.3423C44.6713 21.0776 44.0869 21.5708 43.3427 21.5708C42.9696 21.5708 42.6703 21.4512 42.4784 21.2241C42.2882 20.9985 42.2167 20.6772 42.2766 20.3198C42.3932 19.5908 42.9858 19.0815 43.7186 19.0815C44.0842 19.0815 44.3811 19.2026 44.577 19.4321C44.7738 19.6636 44.8516 19.9863 44.7947 20.3423Z" fill="#179BD7" fill-opacity="1.000000" fill-rule="evenodd"/>
	</g>
	<rect id="Badge" rx="8.067858" width="46.838390" height="30.254465" transform="translate(9.076301 4.594490)" stroke="#D6DCE5" stroke-opacity="1.000000" stroke-width="0.224107"/>
</svg>
